<svg xmlns="http://www.w3.org/2000/svg" viewBox="0 0 500 500"><defs><style>.cls-1{opacity:0;}.cls-2{fill:#231f20;}.cls-3{fill:#2b2c41;}.cls-4,.cls-5,.cls-6{fill:none;}.cls-4,.cls-7{stroke:#edf2f4;}.cls-4,.cls-5,.cls-6,.cls-7{stroke-miterlimit:10;}.cls-4{stroke-width:4px;}.cls-5{stroke:#8e99ad;stroke-width:3px;}.cls-6{stroke:#231f20;}.cls-7{fill:#edf2f4;}</style></defs><title>backface</title><g id="Layer_3" data-name="Layer 3"><g class="cls-1"><rect class="cls-2" width="13.26" height="8"/><rect class="cls-2" x="486.74" y="486.74" width="13.26" height="13.26"/></g></g><g id="Layer_1" data-name="Layer 1"><circle class="cls-3" cx="250" cy="251" r="236.74"/><line class="cls-4" x1="250" y1="22.52" x2="250" y2="34.5"/><line class="cls-4" x1="135.76" y1="53.13" x2="141.75" y2="63.5"/><line class="cls-4" x1="52.13" y1="136.76" x2="62.5" y2="142.75"/><line class="cls-4" x1="21.52" y1="251" x2="33.5" y2="251"/><line class="cls-4" x1="52.13" y1="365.24" x2="62.5" y2="359.25"/><line class="cls-4" x1="135.76" y1="448.87" x2="141.75" y2="438.5"/><line class="cls-4" x1="250" y1="479.48" x2="250" y2="467.5"/><line class="cls-4" x1="364.24" y1="448.87" x2="358.25" y2="438.5"/><line class="cls-4" x1="447.87" y1="365.24" x2="437.5" y2="359.25"/><line class="cls-4" x1="478.48" y1="251" x2="466.5" y2="251"/><line class="cls-4" x1="447.87" y1="136.76" x2="437.5" y2="142.75"/><line class="cls-4" x1="364.24" y1="53.13" x2="358.25" y2="63.5"/><line class="cls-5" x1="226.12" y1="23.77" x2="227.03" y2="32.42"/><line class="cls-5" x1="202.5" y1="27.51" x2="204.3" y2="36.02"/><line class="cls-5" x1="179.4" y1="33.7" x2="182.08" y2="41.97"/><line class="cls-5" x1="157.07" y1="42.27" x2="160.61" y2="50.22"/><line class="cls-5" x1="115.7" y1="66.16" x2="120.82" y2="73.19"/><line class="cls-5" x1="97.12" y1="81.21" x2="102.94" y2="87.67"/><line class="cls-5" x1="80.21" y1="98.12" x2="86.67" y2="103.94"/><line class="cls-5" x1="65.16" y1="116.7" x2="72.19" y2="121.82"/><line class="cls-5" x1="41.27" y1="158.07" x2="49.22" y2="161.61"/><line class="cls-5" x1="32.7" y1="180.4" x2="40.97" y2="183.08"/><line class="cls-5" x1="26.51" y1="203.5" x2="35.02" y2="205.3"/><line class="cls-5" x1="22.77" y1="227.12" x2="31.42" y2="228.03"/><line class="cls-5" x1="22.77" y1="274.88" x2="31.42" y2="273.97"/><line class="cls-5" x1="26.51" y1="298.5" x2="35.02" y2="296.7"/><line class="cls-5" x1="32.7" y1="321.6" x2="40.97" y2="318.92"/><line class="cls-5" x1="41.27" y1="343.93" x2="49.22" y2="340.39"/><line class="cls-5" x1="65.16" y1="385.3" x2="72.19" y2="380.18"/><line class="cls-5" x1="80.21" y1="403.88" x2="86.67" y2="398.06"/><line class="cls-5" x1="97.12" y1="420.79" x2="102.94" y2="414.33"/><line class="cls-5" x1="115.7" y1="435.84" x2="120.82" y2="428.81"/><line class="cls-5" x1="157.07" y1="459.73" x2="160.61" y2="451.78"/><line class="cls-5" x1="179.4" y1="468.3" x2="182.08" y2="460.03"/><line class="cls-5" x1="202.5" y1="474.49" x2="204.3" y2="465.98"/><line class="cls-5" x1="226.12" y1="478.23" x2="227.03" y2="469.58"/><line class="cls-5" x1="273.88" y1="478.23" x2="272.97" y2="469.58"/><line class="cls-5" x1="297.5" y1="474.49" x2="295.7" y2="465.98"/><line class="cls-5" x1="320.6" y1="468.3" x2="317.92" y2="460.03"/><line class="cls-5" x1="342.93" y1="459.73" x2="339.39" y2="451.78"/><line class="cls-5" x1="384.3" y1="435.84" x2="379.18" y2="428.81"/><line class="cls-5" x1="402.88" y1="420.79" x2="397.06" y2="414.33"/><line class="cls-5" x1="419.79" y1="403.88" x2="413.33" y2="398.06"/><line class="cls-5" x1="434.84" y1="385.3" x2="427.81" y2="380.18"/><line class="cls-5" x1="458.73" y1="343.93" x2="450.78" y2="340.39"/><line class="cls-5" x1="467.3" y1="321.6" x2="459.03" y2="318.92"/><line class="cls-5" x1="473.49" y1="298.5" x2="464.98" y2="296.7"/><line class="cls-5" x1="477.23" y1="274.88" x2="468.58" y2="273.97"/><line class="cls-5" x1="477.23" y1="227.12" x2="468.58" y2="228.03"/><line class="cls-5" x1="473.49" y1="203.5" x2="464.98" y2="205.3"/><line class="cls-5" x1="467.3" y1="180.4" x2="459.03" y2="183.08"/><line class="cls-5" x1="458.73" y1="158.07" x2="450.78" y2="161.61"/><line class="cls-5" x1="434.84" y1="116.7" x2="427.81" y2="121.82"/><line class="cls-5" x1="419.79" y1="98.12" x2="413.33" y2="103.94"/><line class="cls-5" x1="402.88" y1="81.21" x2="397.06" y2="87.67"/><line class="cls-5" x1="384.3" y1="66.16" x2="379.18" y2="73.19"/><line class="cls-5" x1="342.93" y1="42.27" x2="339.39" y2="50.22"/><line class="cls-5" x1="320.6" y1="33.7" x2="317.92" y2="41.97"/><line class="cls-5" x1="297.5" y1="27.51" x2="295.7" y2="36.02"/><line class="cls-5" x1="273.88" y1="23.77" x2="272.97" y2="32.42"/><g class="cls-1"><rect class="cls-6" x="232.41" y="34.5" width="35.18" height="35.18"/><rect class="cls-6" x="132.96" y="60.15" width="35.18" height="35.18" transform="translate(-18.7 86.69) rotate(-30)"/><rect class="cls-6" x="60.15" y="132.96" width="35.18" height="35.18" transform="matrix(0.5, -0.87, 0.87, 0.5, -91.51, 143.59)"/><rect class="cls-6" x="33.5" y="232.41" width="35.18" height="35.18" transform="translate(-198.91 302.09) rotate(-90)"/><rect class="cls-6" x="60.15" y="331.87" width="35.18" height="35.18" transform="translate(-186.03 592.51) rotate(-120)"/><rect class="cls-6" x="132.96" y="404.68" width="35.18" height="35.18" transform="translate(69.79 864.23) rotate(-150)"/><rect class="cls-6" x="232.41" y="431.33" width="35.18" height="35.18" transform="translate(500 898.83) rotate(-180)"/><rect class="cls-6" x="331.87" y="404.68" width="35.18" height="35.18" transform="translate(863.23 614.23) rotate(150)"/><rect class="cls-6" x="404.68" y="331.87" width="35.18" height="35.18" transform="translate(936.03 159.49) rotate(120)"/><rect class="cls-6" x="431.33" y="232.41" width="35.18" height="35.18" transform="translate(698.91 -197.91) rotate(90)"/><rect class="cls-6" x="404.68" y="132.96" width="35.18" height="35.18" transform="translate(341.51 -289.42) rotate(60)"/><rect class="cls-6" x="331.87" y="60.15" width="35.18" height="35.18" transform="matrix(0.87, 0.5, -0.5, 0.87, 85.69, -163.31)"/></g><path class="cls-7" d="M234.15,46l4.91-5.85H242V58.9h-2.16V42.57q-.36.47-1.44,1.74L236.94,46Z" transform="translate(0 1)"/><path class="cls-7" d="M248.92,40.15h12.61a3,3,0,0,1,2.22.92,3.06,3.06,0,0,1,.92,2.25v4.39a3.15,3.15,0,0,1-3.15,3.15H248.92a1,1,0,0,0-1,1v3.87a1,1,0,0,0,1,1h15.76V58.9h-18.9v-7a3.11,3.11,0,0,1,3.15-3.15h12.61a1,1,0,0,0,1-1V43.32a1,1,0,0,0-1-1H248.92a1,1,0,0,0-1,1v.73h-2.13v-.73a3.08,3.08,0,0,1,.91-2.25A3,3,0,0,1,248.92,40.15Z" transform="translate(0 1)"/><path class="cls-7" d="M345.4,73.57l4.91-5.85h2.91V86.44h-2.16V70.11q-.36.47-1.44,1.74l-1.44,1.72Z" transform="translate(0 1)"/><path class="cls-7" d="M414.1,143.09h12.61a3.15,3.15,0,0,1,3.15,3.17v4.39a3.15,3.15,0,0,1-3.15,3.15H414.1a1,1,0,0,0-1,1v3.87a1,1,0,0,0,1,1h15.76v2.13H411v-7a3.11,3.11,0,0,1,3.15-3.15h12.61a1,1,0,0,0,1-1v-4.39a1,1,0,0,0-1-1H414.1a1,1,0,0,0-1,1V147H411v-.73a3.08,3.08,0,0,1,.91-2.25A3,3,0,0,1,414.1,143.09Z" transform="translate(0 1)"/><path class="cls-7" d="M457.34,248.54l.1.47a3.07,3.07,0,0,1,1,2.34v4.34a3.15,3.15,0,0,1-3.15,3.15H442.72a3.06,3.06,0,0,1-2.25-.92,3,3,0,0,1-.92-2.22v-.42h2.16v.42a1,1,0,0,0,1,1h12.61a1,1,0,0,0,1-1v-4.34a1,1,0,0,0-1-1H443.14V248.2H454.5a1,1,0,0,0,1-1v-3.93a1,1,0,0,0-1-1H442.72a1,1,0,0,0-1,1v.68h-2.16v-.68a3.15,3.15,0,0,1,3.17-3.17H454.5a3,3,0,0,1,2.24.92,3.08,3.08,0,0,1,.91,2.25v3.93A3.2,3.2,0,0,1,457.34,248.54Z" transform="translate(0 1)"/><path class="cls-7" d="M427.11,350.37H430v2.13h-2.91v4.84H425V352.5H411.93v-2.39l12.79-11.52h2.39ZM425,342l-10.32,8.37H425Z" transform="translate(0 1)"/><path class="cls-7" d="M343.19,414.66v3.82a1,1,0,0,0,.3.73,1,1,0,0,0,.71.31h12.61a3,3,0,0,1,2.22.91,3,3,0,0,1,.92,2.24v4.42a3.15,3.15,0,0,1-3.15,3.15H344.2a3,3,0,0,1-2.24-.92,3.05,3.05,0,0,1-.91-2.22v-.75h2.13v.75a1,1,0,0,0,1,1h12.61a1,1,0,0,0,1-1v-4.42a1,1,0,0,0-1-1H341.06V411.49H360v2.16H344.2a1,1,0,0,0-1,1Z" transform="translate(0 1)"/><path class="cls-7" d="M243,447.3h12.61a3.05,3.05,0,0,1,2.22.91,3,3,0,0,1,.92,2.24v4.5a3.15,3.15,0,0,1-3.15,3.15H243a3,3,0,0,1-2.24-.92,3.05,3.05,0,0,1-.91-2.22V442.52a3.08,3.08,0,0,1,.91-2.25,3,3,0,0,1,2.24-.92h12.48v2.16H243a1,1,0,0,0-1,1v3.74a1,1,0,0,0,.3.73A1,1,0,0,0,243,447.3Zm13.62,7.64v-4.5a1,1,0,0,0-1-1H242v5.51a1,1,0,0,0,1,1h12.61a1,1,0,0,0,1-1Z" transform="translate(0 1)"/><path class="cls-7" d="M152.52,414.65H140v-2.16h12.48a3.15,3.15,0,0,1,3.15,3.17v15.57h-2.13V415.66a1,1,0,0,0-1-1Z" transform="translate(0 1)"/><path class="cls-7" d="M90.28,340.24v4.34a3.57,3.57,0,0,1-.78,2.11,3.38,3.38,0,0,1,.78,2.08v4.42a3.15,3.15,0,0,1-3.15,3.15H74.52a3,3,0,0,1-2.24-.92,3.05,3.05,0,0,1-.91-2.22v-4.42a3.38,3.38,0,0,1,.78-2.08,3.57,3.57,0,0,1-.78-2.11v-3.82a3.08,3.08,0,0,1,.91-2.25,3,3,0,0,1,2.24-.92H87.13a2.87,2.87,0,0,1,1.94.79A3.93,3.93,0,0,1,90.28,340.24Zm-2.13,4.65v-4.11a1,1,0,0,0-1-1H74.52a1,1,0,0,0-1,1v4.11a1,1,0,0,0,1,1H87.13a1,1,0,0,0,1-1Zm0,8.29v-4.42a1,1,0,0,0-1-1H74.52a1,1,0,0,0-1,1v4.42a1,1,0,0,0,1,1H87.13a1,1,0,0,0,1-1Z" transform="translate(0 1)"/><path class="cls-7" d="M57.43,250.91H44.82a3.06,3.06,0,0,1-2.25-.92,3,3,0,0,1-.92-2.22v-4.5a3.15,3.15,0,0,1,3.17-3.17H57.43a3.15,3.15,0,0,1,3.15,3.17v12.43a3.15,3.15,0,0,1-3.15,3.15H44.82a3.09,3.09,0,0,1-1.85-.6,3,3,0,0,1-1.14-1.53h15.6a1,1,0,0,0,1-1v-3.77a1,1,0,0,0-1-1Zm-13.62-7.64v4.5a1,1,0,0,0,1,1H58.45v-5.51a1,1,0,0,0-1-1H44.82a1,1,0,0,0-1,1Z" transform="translate(0 1)"/><path class="cls-7" d="M67.19,146l4.91-5.85H75v18.72H72.86V142.51q-.36.47-1.44,1.74L70,146Z" transform="translate(0 1)"/><path class="cls-7" d="M82,140.12H94.57a3.15,3.15,0,0,1,3.15,3.17v12.4a3.15,3.15,0,0,1-3.15,3.15H82a3,3,0,0,1-2.24-.92,3.05,3.05,0,0,1-.91-2.22v-12.4a3.08,3.08,0,0,1,.91-2.25A3,3,0,0,1,82,140.12Zm13.34,2.16H82a1,1,0,0,0-1,1v10.84ZM81.2,156.71H94.57a1,1,0,0,0,1-1V144.85Z" transform="translate(0 1)"/><path class="cls-7" d="M144.4,71.3l4.91-5.85h2.91V84.17h-2.16V67.84q-.36.47-1.44,1.74l-1.44,1.72Z" transform="translate(0 1)"/><path class="cls-7" d="M154.57,71.3l4.91-5.85h2.91V84.17h-2.16V67.84q-.36.47-1.44,1.74l-1.44,1.72Z" transform="translate(0 1)"/></g></svg>